<mxfile host="app.diagrams.net" modified="2021-06-09T07:27:19.576Z" agent="5.0 (Macintosh; Intel Mac OS X 10_15_6) AppleWebKit/537.36 (KHTML, like Gecko) Chrome/90.0.4430.212 Safari/537.36" etag="FAiWoa5OJCDwh9dersT2" version="14.7.6" type="github">
  <diagram id="T8NgLgQIe1wITJZ7Othr" name="Page-1">
    <mxGraphModel dx="2719" dy="1114" grid="1" gridSize="10" guides="1" tooltips="1" connect="1" arrows="1" fold="1" page="1" pageScale="1" pageWidth="827" pageHeight="1169" math="0" shadow="0">
      <root>
        <mxCell id="0" />
        <mxCell id="1" parent="0" />
        <mxCell id="S25WFhVjfg8YDw7ZaEdf-31" style="edgeStyle=orthogonalEdgeStyle;rounded=0;orthogonalLoop=1;jettySize=auto;html=1;" parent="1" source="S25WFhVjfg8YDw7ZaEdf-30" edge="1">
          <mxGeometry relative="1" as="geometry">
            <mxPoint x="250" y="360" as="targetPoint" />
          </mxGeometry>
        </mxCell>
        <mxCell id="S25WFhVjfg8YDw7ZaEdf-37" style="edgeStyle=orthogonalEdgeStyle;rounded=0;orthogonalLoop=1;jettySize=auto;html=1;exitX=1;exitY=0.5;exitDx=0;exitDy=0;" parent="1" source="S25WFhVjfg8YDw7ZaEdf-30" target="S25WFhVjfg8YDw7ZaEdf-38" edge="1">
          <mxGeometry relative="1" as="geometry">
            <mxPoint x="520" y="360" as="targetPoint" />
          </mxGeometry>
        </mxCell>
        <mxCell id="S25WFhVjfg8YDw7ZaEdf-30" value="入口" style="ellipse;whiteSpace=wrap;html=1;aspect=fixed;fillColor=#d5e8d4;strokeColor=#82b366;" parent="1" vertex="1">
          <mxGeometry x="340" y="170" width="90" height="90" as="geometry" />
        </mxCell>
        <mxCell id="S25WFhVjfg8YDw7ZaEdf-39" style="edgeStyle=orthogonalEdgeStyle;rounded=0;orthogonalLoop=1;jettySize=auto;html=1;exitX=0;exitY=0.5;exitDx=0;exitDy=0;entryX=1;entryY=0.5;entryDx=0;entryDy=0;" parent="1" source="S25WFhVjfg8YDw7ZaEdf-33" target="S25WFhVjfg8YDw7ZaEdf-48" edge="1">
          <mxGeometry relative="1" as="geometry">
            <mxPoint x="150" y="400.16666666666674" as="targetPoint" />
          </mxGeometry>
        </mxCell>
        <mxCell id="S25WFhVjfg8YDw7ZaEdf-55" value="&lt;font color=&quot;#cc0000&quot;&gt;否&lt;/font&gt;" style="edgeLabel;html=1;align=center;verticalAlign=middle;resizable=0;points=[];" parent="S25WFhVjfg8YDw7ZaEdf-39" vertex="1" connectable="0">
          <mxGeometry x="-0.3636" relative="1" as="geometry">
            <mxPoint as="offset" />
          </mxGeometry>
        </mxCell>
        <mxCell id="S25WFhVjfg8YDw7ZaEdf-49" style="edgeStyle=orthogonalEdgeStyle;rounded=0;orthogonalLoop=1;jettySize=auto;html=1;exitX=1;exitY=0.5;exitDx=0;exitDy=0;" parent="1" source="S25WFhVjfg8YDw7ZaEdf-33" edge="1">
          <mxGeometry relative="1" as="geometry">
            <mxPoint x="400" y="520" as="targetPoint" />
          </mxGeometry>
        </mxCell>
        <mxCell id="S25WFhVjfg8YDw7ZaEdf-56" value="&lt;font color=&quot;#009900&quot;&gt;是&lt;/font&gt;" style="edgeLabel;html=1;align=center;verticalAlign=middle;resizable=0;points=[];" parent="S25WFhVjfg8YDw7ZaEdf-49" vertex="1" connectable="0">
          <mxGeometry x="-0.7029" relative="1" as="geometry">
            <mxPoint as="offset" />
          </mxGeometry>
        </mxCell>
        <mxCell id="S25WFhVjfg8YDw7ZaEdf-33" value="范围是否覆盖" style="rhombus;whiteSpace=wrap;html=1;" parent="1" vertex="1">
          <mxGeometry x="210" y="360" width="80" height="80" as="geometry" />
        </mxCell>
        <mxCell id="S25WFhVjfg8YDw7ZaEdf-50" style="edgeStyle=orthogonalEdgeStyle;rounded=0;orthogonalLoop=1;jettySize=auto;html=1;exitX=0;exitY=0.5;exitDx=0;exitDy=0;" parent="1" source="S25WFhVjfg8YDw7ZaEdf-38" edge="1">
          <mxGeometry relative="1" as="geometry">
            <mxPoint x="400" y="520" as="targetPoint" />
          </mxGeometry>
        </mxCell>
        <mxCell id="S25WFhVjfg8YDw7ZaEdf-54" value="&lt;font color=&quot;#cc0000&quot;&gt;否&lt;/font&gt;" style="edgeLabel;html=1;align=center;verticalAlign=middle;resizable=0;points=[];" parent="S25WFhVjfg8YDw7ZaEdf-50" vertex="1" connectable="0">
          <mxGeometry x="-0.6617" relative="1" as="geometry">
            <mxPoint as="offset" />
          </mxGeometry>
        </mxCell>
        <mxCell id="S25WFhVjfg8YDw7ZaEdf-52" style="edgeStyle=orthogonalEdgeStyle;rounded=0;orthogonalLoop=1;jettySize=auto;html=1;entryX=0;entryY=0.5;entryDx=0;entryDy=0;" parent="1" source="S25WFhVjfg8YDw7ZaEdf-38" target="S25WFhVjfg8YDw7ZaEdf-47" edge="1">
          <mxGeometry relative="1" as="geometry" />
        </mxCell>
        <mxCell id="S25WFhVjfg8YDw7ZaEdf-53" value="&lt;font color=&quot;#00cc00&quot;&gt;是&lt;/font&gt;" style="edgeLabel;html=1;align=center;verticalAlign=middle;resizable=0;points=[];" parent="S25WFhVjfg8YDw7ZaEdf-52" vertex="1" connectable="0">
          <mxGeometry x="0.0567" y="-2" relative="1" as="geometry">
            <mxPoint as="offset" />
          </mxGeometry>
        </mxCell>
        <mxCell id="S25WFhVjfg8YDw7ZaEdf-38" value="取消上门3次" style="rhombus;whiteSpace=wrap;html=1;" parent="1" vertex="1">
          <mxGeometry x="480" y="365" width="100" height="70" as="geometry" />
        </mxCell>
        <mxCell id="S25WFhVjfg8YDw7ZaEdf-47" value="异常页面" style="rounded=1;whiteSpace=wrap;html=1;fillColor=#f8cecc;strokeColor=#b85450;" parent="1" vertex="1">
          <mxGeometry x="680" y="372.5" width="130" height="55" as="geometry" />
        </mxCell>
        <mxCell id="S25WFhVjfg8YDw7ZaEdf-48" value="异常页面" style="rounded=1;whiteSpace=wrap;html=1;fillColor=#f8cecc;strokeColor=#b85450;" parent="1" vertex="1">
          <mxGeometry x="-20" y="370" width="120" height="60" as="geometry" />
        </mxCell>
        <mxCell id="S25WFhVjfg8YDw7ZaEdf-58" value="&lt;font color=&quot;#00cc00&quot;&gt;是&lt;/font&gt;" style="edgeStyle=orthogonalEdgeStyle;rounded=0;orthogonalLoop=1;jettySize=auto;html=1;" parent="1" source="S25WFhVjfg8YDw7ZaEdf-57" edge="1">
          <mxGeometry relative="1" as="geometry">
            <mxPoint x="400" y="830" as="targetPoint" />
          </mxGeometry>
        </mxCell>
        <mxCell id="S25WFhVjfg8YDw7ZaEdf-59" style="edgeStyle=orthogonalEdgeStyle;rounded=0;orthogonalLoop=1;jettySize=auto;html=1;exitX=1;exitY=0.5;exitDx=0;exitDy=0;" parent="1" source="S25WFhVjfg8YDw7ZaEdf-57" edge="1">
          <mxGeometry relative="1" as="geometry">
            <mxPoint x="640" y="584.3333333333335" as="targetPoint" />
          </mxGeometry>
        </mxCell>
        <mxCell id="S25WFhVjfg8YDw7ZaEdf-60" value="&lt;font color=&quot;#cc0000&quot;&gt;否&lt;/font&gt;" style="edgeLabel;html=1;align=center;verticalAlign=middle;resizable=0;points=[];" parent="S25WFhVjfg8YDw7ZaEdf-59" vertex="1" connectable="0">
          <mxGeometry x="-0.2421" y="-2" relative="1" as="geometry">
            <mxPoint as="offset" />
          </mxGeometry>
        </mxCell>
        <mxCell id="S25WFhVjfg8YDw7ZaEdf-57" value="用户是否预约上门取件" style="rhombus;whiteSpace=wrap;html=1;" parent="1" vertex="1">
          <mxGeometry x="340" y="519" width="120" height="130" as="geometry" />
        </mxCell>
        <mxCell id="S25WFhVjfg8YDw7ZaEdf-77" style="edgeStyle=orthogonalEdgeStyle;rounded=0;orthogonalLoop=1;jettySize=auto;html=1;" parent="1" source="S25WFhVjfg8YDw7ZaEdf-62" target="S25WFhVjfg8YDw7ZaEdf-78" edge="1">
          <mxGeometry relative="1" as="geometry">
            <mxPoint x="660" y="860" as="targetPoint" />
          </mxGeometry>
        </mxCell>
        <mxCell id="S25WFhVjfg8YDw7ZaEdf-85" value="&lt;font color=&quot;#cc6600&quot;&gt;修改时间/撤销申请&lt;/font&gt;" style="edgeLabel;html=1;align=center;verticalAlign=middle;resizable=0;points=[];" parent="S25WFhVjfg8YDw7ZaEdf-77" vertex="1" connectable="0">
          <mxGeometry x="-0.256" y="1" relative="1" as="geometry">
            <mxPoint x="-1" as="offset" />
          </mxGeometry>
        </mxCell>
        <mxCell id="S25WFhVjfg8YDw7ZaEdf-81" value="&lt;font color=&quot;#994c00&quot;&gt;物流详情&lt;/font&gt;" style="edgeStyle=orthogonalEdgeStyle;rounded=0;orthogonalLoop=1;jettySize=auto;html=1;" parent="1" source="S25WFhVjfg8YDw7ZaEdf-62" edge="1">
          <mxGeometry relative="1" as="geometry">
            <mxPoint x="415" y="1050" as="targetPoint" />
            <Array as="points">
              <mxPoint x="415" y="970" />
              <mxPoint x="415" y="970" />
            </Array>
          </mxGeometry>
        </mxCell>
        <mxCell id="S25WFhVjfg8YDw7ZaEdf-91" value="&lt;font color=&quot;#994c00&quot;&gt;查看&lt;/font&gt;" style="edgeStyle=orthogonalEdgeStyle;rounded=0;orthogonalLoop=1;jettySize=auto;html=1;" parent="1" source="S25WFhVjfg8YDw7ZaEdf-62" edge="1">
          <mxGeometry relative="1" as="geometry">
            <mxPoint x="100" y="860" as="targetPoint" />
          </mxGeometry>
        </mxCell>
        <mxCell id="S25WFhVjfg8YDw7ZaEdf-62" value="&lt;span&gt;取件详情页面&lt;/span&gt;" style="rounded=1;whiteSpace=wrap;html=1;fillColor=#e1d5e7;strokeColor=#9673a6;" parent="1" vertex="1">
          <mxGeometry x="350" y="830" width="130" height="60" as="geometry" />
        </mxCell>
        <mxCell id="S25WFhVjfg8YDw7ZaEdf-63" value="预约取件页面" style="rounded=1;whiteSpace=wrap;html=1;fillColor=#e1d5e7;strokeColor=#9673a6;" parent="1" vertex="1">
          <mxGeometry x="640" y="554" width="120" height="60" as="geometry" />
        </mxCell>
        <mxCell id="S25WFhVjfg8YDw7ZaEdf-86" value="&lt;font color=&quot;#990000&quot;&gt;否&lt;/font&gt;" style="edgeStyle=orthogonalEdgeStyle;rounded=0;orthogonalLoop=1;jettySize=auto;html=1;entryX=1;entryY=0.5;entryDx=0;entryDy=0;" parent="1" source="S25WFhVjfg8YDw7ZaEdf-78" target="S25WFhVjfg8YDw7ZaEdf-63" edge="1">
          <mxGeometry relative="1" as="geometry" />
        </mxCell>
        <mxCell id="S25WFhVjfg8YDw7ZaEdf-88" style="edgeStyle=orthogonalEdgeStyle;rounded=0;orthogonalLoop=1;jettySize=auto;html=1;entryX=0.5;entryY=0;entryDx=0;entryDy=0;" parent="1" target="S25WFhVjfg8YDw7ZaEdf-30" edge="1">
          <mxGeometry relative="1" as="geometry">
            <mxPoint x="740" y="60" as="targetPoint" />
            <mxPoint x="1220" y="120" as="sourcePoint" />
            <Array as="points">
              <mxPoint x="385" y="120" />
            </Array>
          </mxGeometry>
        </mxCell>
        <mxCell id="S25WFhVjfg8YDw7ZaEdf-89" value="&lt;font style=&quot;font-size: 12px&quot; color=&quot;#994c00&quot;&gt;是&lt;/font&gt;" style="edgeLabel;html=1;align=center;verticalAlign=middle;resizable=0;points=[];" parent="S25WFhVjfg8YDw7ZaEdf-88" vertex="1" connectable="0">
          <mxGeometry x="-0.7386" y="2" relative="1" as="geometry">
            <mxPoint x="-1" as="offset" />
          </mxGeometry>
        </mxCell>
        <mxCell id="S25WFhVjfg8YDw7ZaEdf-78" value="弹窗提示,是否修改3 次" style="rhombus;whiteSpace=wrap;html=1;" parent="1" vertex="1">
          <mxGeometry x="1170" y="120" width="100" height="100" as="geometry" />
        </mxCell>
        <mxCell id="S25WFhVjfg8YDw7ZaEdf-82" value="物流详情页面" style="rounded=1;whiteSpace=wrap;html=1;fillColor=#e1d5e7;strokeColor=#9673a6;" parent="1" vertex="1">
          <mxGeometry x="355" y="1060" width="120" height="60" as="geometry" />
        </mxCell>
        <mxCell id="S25WFhVjfg8YDw7ZaEdf-92" value="运费险页面" style="rounded=1;whiteSpace=wrap;html=1;fillColor=#e1d5e7;strokeColor=#9673a6;" parent="1" vertex="1">
          <mxGeometry x="-20" y="830" width="120" height="60" as="geometry" />
        </mxCell>
      </root>
    </mxGraphModel>
  </diagram>
</mxfile>
